<svg xmlns="http://www.w3.org/2000/svg" viewBox="0 0 512 512">
<rect x="56" y="96" width="400" height="360" rx="48" fill="#0ea5e9"/>
<rect x="56" y="96" width="400" height="110" rx="48" fill="#0284c7"/>
<rect x="56" y="150" width="400" height="56" fill="#0284c7"/>
<rect x="150" y="60" width="24" height="70" rx="12" fill="#e2e8f0"/>
<rect x="338" y="60" width="24" height="70" rx="12" fill="#e2e8f0"/>
<circle cx="200" cy="300" r="62" fill="#fde047"/>
<g stroke="#fde047" stroke-width="14" stroke-linecap="round">
<line x1="200" y1="200" x2="200" y2="222"/><line x1="200" y1="378" x2="200" y2="400"/>
<line x1="100" y1="300" x2="122" y2="300"/><line x1="278" y1="300" x2="300" y2="300"/>
<line x1="130" y1="230" x2="146" y2="246"/><line x1="254" y1="354" x2="270" y2="370"/>
<line x1="270" y1="230" x2="254" y2="246"/><line x1="146" y1="354" x2="130" y2="370"/>
</g>
<ellipse cx="330" cy="340" rx="70" ry="44" fill="#ffffff"/>
<ellipse cx="300" cy="322" rx="46" ry="30" fill="#e0f2fe"/>
</svg>
